<svg width="171" height="171" viewBox="0 0 171 171" fill="none" xmlns="http://www.w3.org/2000/svg">
<path d="M91.5484 63.7258C91.5484 61.1203 93.6606 59.0081 96.2661 59.0081H118.282C120.888 59.0081 123 61.1203 123 63.7258C123 66.3313 120.888 68.4435 118.282 68.4435H96.2661C93.6606 68.4435 91.5484 66.3313 91.5484 63.7258ZM102.556 52.7177C102.556 50.1122 104.669 48 107.274 48C109.88 48 111.992 50.1122 111.992 52.7177V74.7339C111.992 77.3394 109.88 79.4516 107.274 79.4516C104.669 79.4516 102.556 77.3394 102.556 74.7339V52.7177Z" fill="white"/>
<path d="M111.992 118.282C111.992 120.888 109.88 123 107.274 123C104.669 123 102.556 120.888 102.556 118.282V96.2661C102.556 93.6606 104.669 91.5484 107.274 91.5484C109.88 91.5484 111.992 93.6606 111.992 96.2661V118.282Z" fill="white"/>
<path d="M85.5 117.251C85.5 120.426 82.9109 123.045 79.7727 122.56C71.9477 121.351 64.6517 117.685 58.9835 112.017C51.9509 104.984 48 95.4456 48 85.5C48 75.5544 51.9509 66.0161 58.9835 58.9835C64.6517 53.3153 71.9477 49.649 79.7727 48.4398C82.9108 47.9548 85.5 50.5741 85.5 53.7495C85.5 56.9248 82.8951 59.4355 79.7971 60.132C75.0314 61.2035 70.6232 63.6058 67.1145 67.1145C62.2384 71.9906 59.499 78.6041 59.499 85.5C59.499 92.3959 62.2384 99.0094 67.1145 103.885C70.6232 107.394 75.0314 109.797 79.7971 110.868C82.8951 111.565 85.5 114.075 85.5 117.251Z" fill="white"/>
</svg>
